<mxfile host="app.diagrams.net" modified="2022-09-20T03:27:40.480Z" agent="5.0 (Windows NT 10.0; Win64; x64) AppleWebKit/537.36 (KHTML, like Gecko) Chrome/101.0.4951.41 Safari/537.36 Edg/101.0.1210.32" etag="yuxtZteqtfBCnV0Ejsyp" version="20.2.2" type="github">
  <diagram id="bHrQ4UqMqMBex2-um9RD" name="第 1 页">
    <mxGraphModel dx="1278" dy="600" grid="0" gridSize="10" guides="1" tooltips="1" connect="1" arrows="1" fold="1" page="0" pageScale="1" pageWidth="827" pageHeight="1169" math="0" shadow="0">
      <root>
        <mxCell id="0" />
        <mxCell id="1" parent="0" />
        <mxCell id="e0VfKq8w8XFD6ZIbbJqP-277" value="" style="rounded=0;whiteSpace=wrap;html=1;fontSize=14;" vertex="1" parent="1">
          <mxGeometry x="80" y="810" width="790" height="80" as="geometry" />
        </mxCell>
        <mxCell id="e0VfKq8w8XFD6ZIbbJqP-224" value="" style="edgeStyle=orthogonalEdgeStyle;rounded=0;orthogonalLoop=1;jettySize=auto;html=1;fontSize=14;entryX=0.5;entryY=0;entryDx=0;entryDy=0;" edge="1" parent="1" source="e0VfKq8w8XFD6ZIbbJqP-216" target="e0VfKq8w8XFD6ZIbbJqP-218">
          <mxGeometry relative="1" as="geometry" />
        </mxCell>
        <mxCell id="e0VfKq8w8XFD6ZIbbJqP-216" value="" style="rounded=0;whiteSpace=wrap;html=1;fontSize=14;" vertex="1" parent="1">
          <mxGeometry x="80" y="540" width="790" height="80" as="geometry" />
        </mxCell>
        <mxCell id="e0VfKq8w8XFD6ZIbbJqP-32" value="" style="edgeStyle=orthogonalEdgeStyle;rounded=0;orthogonalLoop=1;jettySize=auto;html=1;" edge="1" parent="1" source="e0VfKq8w8XFD6ZIbbJqP-1" target="e0VfKq8w8XFD6ZIbbJqP-31">
          <mxGeometry relative="1" as="geometry">
            <Array as="points">
              <mxPoint x="90" y="110" />
              <mxPoint x="90" y="110" />
            </Array>
          </mxGeometry>
        </mxCell>
        <mxCell id="e0VfKq8w8XFD6ZIbbJqP-1" value="&amp;lt;cls&amp;gt;" style="rounded=0;whiteSpace=wrap;html=1;" vertex="1" parent="1">
          <mxGeometry x="80" y="60" width="20" height="20" as="geometry" />
        </mxCell>
        <mxCell id="e0VfKq8w8XFD6ZIbbJqP-12" value="了" style="rounded=0;whiteSpace=wrap;html=1;" vertex="1" parent="1">
          <mxGeometry x="110" y="60" width="20" height="20" as="geometry" />
        </mxCell>
        <mxCell id="e0VfKq8w8XFD6ZIbbJqP-13" value="解" style="rounded=0;whiteSpace=wrap;html=1;" vertex="1" parent="1">
          <mxGeometry x="140" y="60" width="20" height="20" as="geometry" />
        </mxCell>
        <mxCell id="e0VfKq8w8XFD6ZIbbJqP-14" value="下" style="rounded=0;whiteSpace=wrap;html=1;" vertex="1" parent="1">
          <mxGeometry x="170" y="60" width="20" height="20" as="geometry" />
        </mxCell>
        <mxCell id="e0VfKq8w8XFD6ZIbbJqP-15" value="十" style="rounded=0;whiteSpace=wrap;html=1;" vertex="1" parent="1">
          <mxGeometry x="200" y="60" width="20" height="20" as="geometry" />
        </mxCell>
        <mxCell id="e0VfKq8w8XFD6ZIbbJqP-16" value="二" style="rounded=0;whiteSpace=wrap;html=1;" vertex="1" parent="1">
          <mxGeometry x="230" y="60" width="20" height="20" as="geometry" />
        </mxCell>
        <mxCell id="e0VfKq8w8XFD6ZIbbJqP-17" value="完" style="rounded=0;whiteSpace=wrap;html=1;fillColor=#f8cecc;strokeColor=#b85450;" vertex="1" parent="1">
          <mxGeometry x="260" y="60" width="20" height="20" as="geometry" />
        </mxCell>
        <mxCell id="e0VfKq8w8XFD6ZIbbJqP-18" value="基" style="rounded=0;whiteSpace=wrap;html=1;" vertex="1" parent="1">
          <mxGeometry x="290" y="60" width="20" height="20" as="geometry" />
        </mxCell>
        <mxCell id="e0VfKq8w8XFD6ZIbbJqP-19" value="硫" style="rounded=0;whiteSpace=wrap;html=1;" vertex="1" parent="1">
          <mxGeometry x="320" y="60" width="20" height="20" as="geometry" />
        </mxCell>
        <mxCell id="e0VfKq8w8XFD6ZIbbJqP-20" value="酸" style="rounded=0;whiteSpace=wrap;html=1;" vertex="1" parent="1">
          <mxGeometry x="350" y="60" width="20" height="20" as="geometry" />
        </mxCell>
        <mxCell id="e0VfKq8w8XFD6ZIbbJqP-21" value="那" style="rounded=0;whiteSpace=wrap;html=1;fillColor=#f8cecc;strokeColor=#b85450;" vertex="1" parent="1">
          <mxGeometry x="380" y="60" width="20" height="20" as="geometry" />
        </mxCell>
        <mxCell id="e0VfKq8w8XFD6ZIbbJqP-22" value="的" style="rounded=0;whiteSpace=wrap;html=1;" vertex="1" parent="1">
          <mxGeometry x="410" y="60" width="20" height="20" as="geometry" />
        </mxCell>
        <mxCell id="e0VfKq8w8XFD6ZIbbJqP-23" value="性" style="rounded=0;whiteSpace=wrap;html=1;" vertex="1" parent="1">
          <mxGeometry x="440" y="60" width="20" height="20" as="geometry" />
        </mxCell>
        <mxCell id="e0VfKq8w8XFD6ZIbbJqP-24" value="质" style="rounded=0;whiteSpace=wrap;html=1;" vertex="1" parent="1">
          <mxGeometry x="470" y="60" width="20" height="20" as="geometry" />
        </mxCell>
        <mxCell id="e0VfKq8w8XFD6ZIbbJqP-25" value="是" style="rounded=0;whiteSpace=wrap;html=1;" vertex="1" parent="1">
          <mxGeometry x="500" y="60" width="20" height="20" as="geometry" />
        </mxCell>
        <mxCell id="e0VfKq8w8XFD6ZIbbJqP-26" value="什" style="rounded=0;whiteSpace=wrap;html=1;" vertex="1" parent="1">
          <mxGeometry x="530" y="60" width="20" height="20" as="geometry" />
        </mxCell>
        <mxCell id="e0VfKq8w8XFD6ZIbbJqP-27" value="么" style="rounded=0;whiteSpace=wrap;html=1;" vertex="1" parent="1">
          <mxGeometry x="560" y="60" width="20" height="20" as="geometry" />
        </mxCell>
        <mxCell id="e0VfKq8w8XFD6ZIbbJqP-28" value="呢" style="rounded=0;whiteSpace=wrap;html=1;" vertex="1" parent="1">
          <mxGeometry x="590" y="60" width="20" height="20" as="geometry" />
        </mxCell>
        <mxCell id="e0VfKq8w8XFD6ZIbbJqP-29" value="?" style="rounded=0;whiteSpace=wrap;html=1;" vertex="1" parent="1">
          <mxGeometry x="620" y="60" width="20" height="20" as="geometry" />
        </mxCell>
        <mxCell id="e0VfKq8w8XFD6ZIbbJqP-30" value="&amp;lt;sep&amp;gt;" style="rounded=0;whiteSpace=wrap;html=1;" vertex="1" parent="1">
          <mxGeometry x="650" y="60" width="20" height="20" as="geometry" />
        </mxCell>
        <mxCell id="e0VfKq8w8XFD6ZIbbJqP-128" style="edgeStyle=orthogonalEdgeStyle;rounded=0;orthogonalLoop=1;jettySize=auto;html=1;entryX=0.5;entryY=0;entryDx=0;entryDy=0;fontSize=14;" edge="1" parent="1" source="e0VfKq8w8XFD6ZIbbJqP-31" target="e0VfKq8w8XFD6ZIbbJqP-99">
          <mxGeometry relative="1" as="geometry" />
        </mxCell>
        <mxCell id="e0VfKq8w8XFD6ZIbbJqP-31" value="Bert" style="rounded=0;whiteSpace=wrap;html=1;fillColor=#d5e8d4;strokeColor=#82b366;" vertex="1" parent="1">
          <mxGeometry x="80" y="120" width="590" height="20" as="geometry" />
        </mxCell>
        <mxCell id="e0VfKq8w8XFD6ZIbbJqP-33" value="" style="edgeStyle=orthogonalEdgeStyle;rounded=0;orthogonalLoop=1;jettySize=auto;html=1;" edge="1" parent="1">
          <mxGeometry relative="1" as="geometry">
            <mxPoint x="119.5" y="80" as="sourcePoint" />
            <mxPoint x="119.5" y="120" as="targetPoint" />
            <Array as="points">
              <mxPoint x="119.5" y="110" />
              <mxPoint x="119.5" y="110" />
            </Array>
          </mxGeometry>
        </mxCell>
        <mxCell id="e0VfKq8w8XFD6ZIbbJqP-34" value="" style="edgeStyle=orthogonalEdgeStyle;rounded=0;orthogonalLoop=1;jettySize=auto;html=1;" edge="1" parent="1">
          <mxGeometry relative="1" as="geometry">
            <mxPoint x="149.5" y="80" as="sourcePoint" />
            <mxPoint x="149.5" y="120" as="targetPoint" />
            <Array as="points">
              <mxPoint x="149.5" y="110" />
              <mxPoint x="149.5" y="110" />
            </Array>
          </mxGeometry>
        </mxCell>
        <mxCell id="e0VfKq8w8XFD6ZIbbJqP-35" value="" style="edgeStyle=orthogonalEdgeStyle;rounded=0;orthogonalLoop=1;jettySize=auto;html=1;" edge="1" parent="1">
          <mxGeometry relative="1" as="geometry">
            <mxPoint x="179.5" y="80" as="sourcePoint" />
            <mxPoint x="179.5" y="120" as="targetPoint" />
            <Array as="points">
              <mxPoint x="179.5" y="110" />
              <mxPoint x="179.5" y="110" />
            </Array>
          </mxGeometry>
        </mxCell>
        <mxCell id="e0VfKq8w8XFD6ZIbbJqP-36" value="" style="edgeStyle=orthogonalEdgeStyle;rounded=0;orthogonalLoop=1;jettySize=auto;html=1;" edge="1" parent="1">
          <mxGeometry relative="1" as="geometry">
            <mxPoint x="239.5" y="80" as="sourcePoint" />
            <mxPoint x="239.5" y="120" as="targetPoint" />
            <Array as="points">
              <mxPoint x="239.5" y="110" />
              <mxPoint x="239.5" y="110" />
            </Array>
          </mxGeometry>
        </mxCell>
        <mxCell id="e0VfKq8w8XFD6ZIbbJqP-37" value="" style="edgeStyle=orthogonalEdgeStyle;rounded=0;orthogonalLoop=1;jettySize=auto;html=1;" edge="1" parent="1">
          <mxGeometry relative="1" as="geometry">
            <mxPoint x="209.5" y="80" as="sourcePoint" />
            <mxPoint x="209.5" y="120" as="targetPoint" />
            <Array as="points">
              <mxPoint x="209.5" y="110" />
              <mxPoint x="209.5" y="110" />
            </Array>
          </mxGeometry>
        </mxCell>
        <mxCell id="e0VfKq8w8XFD6ZIbbJqP-53" value="" style="edgeStyle=orthogonalEdgeStyle;rounded=0;orthogonalLoop=1;jettySize=auto;html=1;" edge="1" parent="1">
          <mxGeometry relative="1" as="geometry">
            <mxPoint x="269.5" y="80" as="sourcePoint" />
            <mxPoint x="269.5" y="120" as="targetPoint" />
            <Array as="points">
              <mxPoint x="269.5" y="110" />
              <mxPoint x="269.5" y="110" />
            </Array>
          </mxGeometry>
        </mxCell>
        <mxCell id="e0VfKq8w8XFD6ZIbbJqP-54" value="" style="edgeStyle=orthogonalEdgeStyle;rounded=0;orthogonalLoop=1;jettySize=auto;html=1;" edge="1" parent="1">
          <mxGeometry relative="1" as="geometry">
            <mxPoint x="299.5" y="80" as="sourcePoint" />
            <mxPoint x="299.5" y="120" as="targetPoint" />
            <Array as="points">
              <mxPoint x="299.5" y="110" />
              <mxPoint x="299.5" y="110" />
            </Array>
          </mxGeometry>
        </mxCell>
        <mxCell id="e0VfKq8w8XFD6ZIbbJqP-55" value="" style="edgeStyle=orthogonalEdgeStyle;rounded=0;orthogonalLoop=1;jettySize=auto;html=1;" edge="1" parent="1">
          <mxGeometry relative="1" as="geometry">
            <mxPoint x="329.5" y="80" as="sourcePoint" />
            <mxPoint x="329.5" y="120" as="targetPoint" />
            <Array as="points">
              <mxPoint x="329.5" y="110" />
              <mxPoint x="329.5" y="110" />
            </Array>
          </mxGeometry>
        </mxCell>
        <mxCell id="e0VfKq8w8XFD6ZIbbJqP-56" value="" style="edgeStyle=orthogonalEdgeStyle;rounded=0;orthogonalLoop=1;jettySize=auto;html=1;" edge="1" parent="1">
          <mxGeometry relative="1" as="geometry">
            <mxPoint x="359.5" y="80" as="sourcePoint" />
            <mxPoint x="359.5" y="120" as="targetPoint" />
            <Array as="points">
              <mxPoint x="359.5" y="110" />
              <mxPoint x="359.5" y="110" />
            </Array>
          </mxGeometry>
        </mxCell>
        <mxCell id="e0VfKq8w8XFD6ZIbbJqP-57" value="" style="edgeStyle=orthogonalEdgeStyle;rounded=0;orthogonalLoop=1;jettySize=auto;html=1;" edge="1" parent="1">
          <mxGeometry relative="1" as="geometry">
            <mxPoint x="389.5" y="80" as="sourcePoint" />
            <mxPoint x="389.5" y="120" as="targetPoint" />
            <Array as="points">
              <mxPoint x="389.5" y="110" />
              <mxPoint x="389.5" y="110" />
            </Array>
          </mxGeometry>
        </mxCell>
        <mxCell id="e0VfKq8w8XFD6ZIbbJqP-58" value="" style="edgeStyle=orthogonalEdgeStyle;rounded=0;orthogonalLoop=1;jettySize=auto;html=1;" edge="1" parent="1">
          <mxGeometry relative="1" as="geometry">
            <mxPoint x="419.5" y="80" as="sourcePoint" />
            <mxPoint x="419.5" y="120" as="targetPoint" />
            <Array as="points">
              <mxPoint x="419.5" y="110" />
              <mxPoint x="419.5" y="110" />
            </Array>
          </mxGeometry>
        </mxCell>
        <mxCell id="e0VfKq8w8XFD6ZIbbJqP-59" value="" style="edgeStyle=orthogonalEdgeStyle;rounded=0;orthogonalLoop=1;jettySize=auto;html=1;" edge="1" parent="1">
          <mxGeometry relative="1" as="geometry">
            <mxPoint x="449.5" y="80" as="sourcePoint" />
            <mxPoint x="449.5" y="120" as="targetPoint" />
            <Array as="points">
              <mxPoint x="449.5" y="110" />
              <mxPoint x="449.5" y="110" />
            </Array>
          </mxGeometry>
        </mxCell>
        <mxCell id="e0VfKq8w8XFD6ZIbbJqP-60" value="" style="edgeStyle=orthogonalEdgeStyle;rounded=0;orthogonalLoop=1;jettySize=auto;html=1;" edge="1" parent="1">
          <mxGeometry relative="1" as="geometry">
            <mxPoint x="479.5" y="80" as="sourcePoint" />
            <mxPoint x="479.5" y="120" as="targetPoint" />
            <Array as="points">
              <mxPoint x="479.5" y="110" />
              <mxPoint x="479.5" y="110" />
            </Array>
          </mxGeometry>
        </mxCell>
        <mxCell id="e0VfKq8w8XFD6ZIbbJqP-61" value="" style="edgeStyle=orthogonalEdgeStyle;rounded=0;orthogonalLoop=1;jettySize=auto;html=1;" edge="1" parent="1">
          <mxGeometry relative="1" as="geometry">
            <mxPoint x="509.5" y="80" as="sourcePoint" />
            <mxPoint x="509.5" y="120" as="targetPoint" />
            <Array as="points">
              <mxPoint x="509.5" y="110" />
              <mxPoint x="509.5" y="110" />
            </Array>
          </mxGeometry>
        </mxCell>
        <mxCell id="e0VfKq8w8XFD6ZIbbJqP-62" value="" style="edgeStyle=orthogonalEdgeStyle;rounded=0;orthogonalLoop=1;jettySize=auto;html=1;" edge="1" parent="1">
          <mxGeometry relative="1" as="geometry">
            <mxPoint x="539.5" y="80" as="sourcePoint" />
            <mxPoint x="539.5" y="120" as="targetPoint" />
            <Array as="points">
              <mxPoint x="539.5" y="110" />
              <mxPoint x="539.5" y="110" />
            </Array>
          </mxGeometry>
        </mxCell>
        <mxCell id="e0VfKq8w8XFD6ZIbbJqP-63" value="" style="edgeStyle=orthogonalEdgeStyle;rounded=0;orthogonalLoop=1;jettySize=auto;html=1;" edge="1" parent="1">
          <mxGeometry relative="1" as="geometry">
            <mxPoint x="569.5" y="80" as="sourcePoint" />
            <mxPoint x="569.5" y="120" as="targetPoint" />
            <Array as="points">
              <mxPoint x="569.5" y="110" />
              <mxPoint x="569.5" y="110" />
            </Array>
          </mxGeometry>
        </mxCell>
        <mxCell id="e0VfKq8w8XFD6ZIbbJqP-64" value="" style="edgeStyle=orthogonalEdgeStyle;rounded=0;orthogonalLoop=1;jettySize=auto;html=1;" edge="1" parent="1">
          <mxGeometry relative="1" as="geometry">
            <mxPoint x="599.5" y="80" as="sourcePoint" />
            <mxPoint x="599.5" y="120" as="targetPoint" />
            <Array as="points">
              <mxPoint x="599.5" y="110" />
              <mxPoint x="599.5" y="110" />
            </Array>
          </mxGeometry>
        </mxCell>
        <mxCell id="e0VfKq8w8XFD6ZIbbJqP-65" value="" style="edgeStyle=orthogonalEdgeStyle;rounded=0;orthogonalLoop=1;jettySize=auto;html=1;" edge="1" parent="1">
          <mxGeometry relative="1" as="geometry">
            <mxPoint x="629.5" y="80" as="sourcePoint" />
            <mxPoint x="629.5" y="120" as="targetPoint" />
            <Array as="points">
              <mxPoint x="629.5" y="110" />
              <mxPoint x="629.5" y="110" />
            </Array>
          </mxGeometry>
        </mxCell>
        <mxCell id="e0VfKq8w8XFD6ZIbbJqP-98" value="" style="edgeStyle=orthogonalEdgeStyle;rounded=0;orthogonalLoop=1;jettySize=auto;html=1;fontSize=14;" edge="1" parent="1" source="e0VfKq8w8XFD6ZIbbJqP-99" target="e0VfKq8w8XFD6ZIbbJqP-101">
          <mxGeometry relative="1" as="geometry" />
        </mxCell>
        <mxCell id="e0VfKq8w8XFD6ZIbbJqP-99" value="Encode-Hidden-States" style="rounded=0;whiteSpace=wrap;html=1;fillColor=#ffe6cc;strokeColor=#d79b00;" vertex="1" parent="1">
          <mxGeometry x="80" y="160" width="590" height="20" as="geometry" />
        </mxCell>
        <mxCell id="e0VfKq8w8XFD6ZIbbJqP-100" value="" style="edgeStyle=orthogonalEdgeStyle;rounded=0;orthogonalLoop=1;jettySize=auto;html=1;fontSize=14;" edge="1" parent="1" source="e0VfKq8w8XFD6ZIbbJqP-101" target="e0VfKq8w8XFD6ZIbbJqP-103">
          <mxGeometry relative="1" as="geometry" />
        </mxCell>
        <mxCell id="e0VfKq8w8XFD6ZIbbJqP-101" value="Dense" style="rounded=0;whiteSpace=wrap;html=1;fillColor=#fff2cc;strokeColor=#d6b656;" vertex="1" parent="1">
          <mxGeometry x="80" y="200" width="590" height="20" as="geometry" />
        </mxCell>
        <mxCell id="e0VfKq8w8XFD6ZIbbJqP-129" value="" style="edgeStyle=orthogonalEdgeStyle;rounded=0;orthogonalLoop=1;jettySize=auto;html=1;fontSize=14;exitX=0.016;exitY=1.05;exitDx=0;exitDy=0;exitPerimeter=0;" edge="1" parent="1" source="e0VfKq8w8XFD6ZIbbJqP-103">
          <mxGeometry relative="1" as="geometry">
            <mxPoint x="89.5" y="270" as="sourcePoint" />
            <mxPoint x="89.5" y="300" as="targetPoint" />
          </mxGeometry>
        </mxCell>
        <mxCell id="e0VfKq8w8XFD6ZIbbJqP-103" value="Crf" style="rounded=0;whiteSpace=wrap;html=1;fillColor=#f8cecc;strokeColor=#b85450;" vertex="1" parent="1">
          <mxGeometry x="80" y="240" width="590" height="20" as="geometry" />
        </mxCell>
        <mxCell id="e0VfKq8w8XFD6ZIbbJqP-107" value="0" style="rounded=0;whiteSpace=wrap;html=1;" vertex="1" parent="1">
          <mxGeometry x="80" y="300" width="20" height="20" as="geometry" />
        </mxCell>
        <mxCell id="e0VfKq8w8XFD6ZIbbJqP-108" value="0" style="rounded=0;whiteSpace=wrap;html=1;" vertex="1" parent="1">
          <mxGeometry x="110" y="300" width="20" height="20" as="geometry" />
        </mxCell>
        <mxCell id="e0VfKq8w8XFD6ZIbbJqP-109" value="0" style="rounded=0;whiteSpace=wrap;html=1;" vertex="1" parent="1">
          <mxGeometry x="140" y="300" width="20" height="20" as="geometry" />
        </mxCell>
        <mxCell id="e0VfKq8w8XFD6ZIbbJqP-110" value="0" style="rounded=0;whiteSpace=wrap;html=1;" vertex="1" parent="1">
          <mxGeometry x="170" y="300" width="20" height="20" as="geometry" />
        </mxCell>
        <mxCell id="e0VfKq8w8XFD6ZIbbJqP-111" value="0" style="rounded=0;whiteSpace=wrap;html=1;" vertex="1" parent="1">
          <mxGeometry x="200" y="300" width="20" height="20" as="geometry" />
        </mxCell>
        <mxCell id="e0VfKq8w8XFD6ZIbbJqP-112" value="0" style="rounded=0;whiteSpace=wrap;html=1;" vertex="1" parent="1">
          <mxGeometry x="230" y="300" width="20" height="20" as="geometry" />
        </mxCell>
        <mxCell id="e0VfKq8w8XFD6ZIbbJqP-289" style="edgeStyle=orthogonalEdgeStyle;rounded=0;orthogonalLoop=1;jettySize=auto;html=1;entryX=0.5;entryY=0;entryDx=0;entryDy=0;fontSize=14;" edge="1" parent="1" source="e0VfKq8w8XFD6ZIbbJqP-113" target="e0VfKq8w8XFD6ZIbbJqP-150">
          <mxGeometry relative="1" as="geometry" />
        </mxCell>
        <mxCell id="e0VfKq8w8XFD6ZIbbJqP-113" value="1" style="rounded=0;whiteSpace=wrap;html=1;fillColor=#f8cecc;strokeColor=#b85450;" vertex="1" parent="1">
          <mxGeometry x="260" y="300" width="20" height="20" as="geometry" />
        </mxCell>
        <mxCell id="e0VfKq8w8XFD6ZIbbJqP-114" value="0" style="rounded=0;whiteSpace=wrap;html=1;" vertex="1" parent="1">
          <mxGeometry x="290" y="300" width="20" height="20" as="geometry" />
        </mxCell>
        <mxCell id="e0VfKq8w8XFD6ZIbbJqP-115" value="0" style="rounded=0;whiteSpace=wrap;html=1;" vertex="1" parent="1">
          <mxGeometry x="320" y="300" width="20" height="20" as="geometry" />
        </mxCell>
        <mxCell id="e0VfKq8w8XFD6ZIbbJqP-116" value="0" style="rounded=0;whiteSpace=wrap;html=1;" vertex="1" parent="1">
          <mxGeometry x="350" y="300" width="20" height="20" as="geometry" />
        </mxCell>
        <mxCell id="e0VfKq8w8XFD6ZIbbJqP-288" style="edgeStyle=orthogonalEdgeStyle;rounded=0;orthogonalLoop=1;jettySize=auto;html=1;entryX=0.5;entryY=0;entryDx=0;entryDy=0;fontSize=14;" edge="1" parent="1" source="e0VfKq8w8XFD6ZIbbJqP-117" target="e0VfKq8w8XFD6ZIbbJqP-151">
          <mxGeometry relative="1" as="geometry" />
        </mxCell>
        <mxCell id="e0VfKq8w8XFD6ZIbbJqP-117" value="1" style="rounded=0;whiteSpace=wrap;html=1;fillColor=#f8cecc;strokeColor=#b85450;" vertex="1" parent="1">
          <mxGeometry x="380" y="300" width="20" height="20" as="geometry" />
        </mxCell>
        <mxCell id="e0VfKq8w8XFD6ZIbbJqP-118" value="0" style="rounded=0;whiteSpace=wrap;html=1;" vertex="1" parent="1">
          <mxGeometry x="410" y="300" width="20" height="20" as="geometry" />
        </mxCell>
        <mxCell id="e0VfKq8w8XFD6ZIbbJqP-119" value="0" style="rounded=0;whiteSpace=wrap;html=1;" vertex="1" parent="1">
          <mxGeometry x="440" y="300" width="20" height="20" as="geometry" />
        </mxCell>
        <mxCell id="e0VfKq8w8XFD6ZIbbJqP-120" value="0" style="rounded=0;whiteSpace=wrap;html=1;" vertex="1" parent="1">
          <mxGeometry x="470" y="300" width="20" height="20" as="geometry" />
        </mxCell>
        <mxCell id="e0VfKq8w8XFD6ZIbbJqP-121" value="0" style="rounded=0;whiteSpace=wrap;html=1;" vertex="1" parent="1">
          <mxGeometry x="500" y="300" width="20" height="20" as="geometry" />
        </mxCell>
        <mxCell id="e0VfKq8w8XFD6ZIbbJqP-122" value="0" style="rounded=0;whiteSpace=wrap;html=1;" vertex="1" parent="1">
          <mxGeometry x="530" y="300" width="20" height="20" as="geometry" />
        </mxCell>
        <mxCell id="e0VfKq8w8XFD6ZIbbJqP-123" value="0" style="rounded=0;whiteSpace=wrap;html=1;" vertex="1" parent="1">
          <mxGeometry x="560" y="300" width="20" height="20" as="geometry" />
        </mxCell>
        <mxCell id="e0VfKq8w8XFD6ZIbbJqP-124" value="0" style="rounded=0;whiteSpace=wrap;html=1;" vertex="1" parent="1">
          <mxGeometry x="590" y="300" width="20" height="20" as="geometry" />
        </mxCell>
        <mxCell id="e0VfKq8w8XFD6ZIbbJqP-125" value="0" style="rounded=0;whiteSpace=wrap;html=1;" vertex="1" parent="1">
          <mxGeometry x="620" y="300" width="20" height="20" as="geometry" />
        </mxCell>
        <mxCell id="e0VfKq8w8XFD6ZIbbJqP-126" value="0" style="rounded=0;whiteSpace=wrap;html=1;" vertex="1" parent="1">
          <mxGeometry x="650" y="300" width="20" height="20" as="geometry" />
        </mxCell>
        <mxCell id="e0VfKq8w8XFD6ZIbbJqP-130" value="" style="edgeStyle=orthogonalEdgeStyle;rounded=0;orthogonalLoop=1;jettySize=auto;html=1;fontSize=14;exitX=0.016;exitY=1.05;exitDx=0;exitDy=0;exitPerimeter=0;" edge="1" parent="1">
          <mxGeometry relative="1" as="geometry">
            <mxPoint x="119.50000000000006" y="261" as="sourcePoint" />
            <mxPoint x="119.56" y="300" as="targetPoint" />
          </mxGeometry>
        </mxCell>
        <mxCell id="e0VfKq8w8XFD6ZIbbJqP-131" value="" style="edgeStyle=orthogonalEdgeStyle;rounded=0;orthogonalLoop=1;jettySize=auto;html=1;fontSize=14;exitX=0.016;exitY=1.05;exitDx=0;exitDy=0;exitPerimeter=0;" edge="1" parent="1">
          <mxGeometry relative="1" as="geometry">
            <mxPoint x="149.50000000000006" y="261" as="sourcePoint" />
            <mxPoint x="149.56" y="300" as="targetPoint" />
          </mxGeometry>
        </mxCell>
        <mxCell id="e0VfKq8w8XFD6ZIbbJqP-132" value="" style="edgeStyle=orthogonalEdgeStyle;rounded=0;orthogonalLoop=1;jettySize=auto;html=1;fontSize=14;exitX=0.016;exitY=1.05;exitDx=0;exitDy=0;exitPerimeter=0;" edge="1" parent="1">
          <mxGeometry relative="1" as="geometry">
            <mxPoint x="179.50000000000006" y="260" as="sourcePoint" />
            <mxPoint x="179.56" y="299" as="targetPoint" />
          </mxGeometry>
        </mxCell>
        <mxCell id="e0VfKq8w8XFD6ZIbbJqP-133" value="" style="edgeStyle=orthogonalEdgeStyle;rounded=0;orthogonalLoop=1;jettySize=auto;html=1;fontSize=14;exitX=0.016;exitY=1.05;exitDx=0;exitDy=0;exitPerimeter=0;" edge="1" parent="1">
          <mxGeometry relative="1" as="geometry">
            <mxPoint x="209.5" y="261" as="sourcePoint" />
            <mxPoint x="209.55999999999995" y="300" as="targetPoint" />
          </mxGeometry>
        </mxCell>
        <mxCell id="e0VfKq8w8XFD6ZIbbJqP-134" value="" style="edgeStyle=orthogonalEdgeStyle;rounded=0;orthogonalLoop=1;jettySize=auto;html=1;fontSize=14;exitX=0.016;exitY=1.05;exitDx=0;exitDy=0;exitPerimeter=0;" edge="1" parent="1">
          <mxGeometry relative="1" as="geometry">
            <mxPoint x="239.5" y="261" as="sourcePoint" />
            <mxPoint x="239.55999999999995" y="300" as="targetPoint" />
          </mxGeometry>
        </mxCell>
        <mxCell id="e0VfKq8w8XFD6ZIbbJqP-135" value="" style="edgeStyle=orthogonalEdgeStyle;rounded=0;orthogonalLoop=1;jettySize=auto;html=1;fontSize=14;exitX=0.016;exitY=1.05;exitDx=0;exitDy=0;exitPerimeter=0;" edge="1" parent="1">
          <mxGeometry relative="1" as="geometry">
            <mxPoint x="269.5" y="260" as="sourcePoint" />
            <mxPoint x="269.55999999999995" y="299" as="targetPoint" />
          </mxGeometry>
        </mxCell>
        <mxCell id="e0VfKq8w8XFD6ZIbbJqP-136" value="" style="edgeStyle=orthogonalEdgeStyle;rounded=0;orthogonalLoop=1;jettySize=auto;html=1;fontSize=14;exitX=0.016;exitY=1.05;exitDx=0;exitDy=0;exitPerimeter=0;" edge="1" parent="1">
          <mxGeometry relative="1" as="geometry">
            <mxPoint x="299.5" y="260" as="sourcePoint" />
            <mxPoint x="299.55999999999995" y="299" as="targetPoint" />
          </mxGeometry>
        </mxCell>
        <mxCell id="e0VfKq8w8XFD6ZIbbJqP-137" value="" style="edgeStyle=orthogonalEdgeStyle;rounded=0;orthogonalLoop=1;jettySize=auto;html=1;fontSize=14;exitX=0.016;exitY=1.05;exitDx=0;exitDy=0;exitPerimeter=0;" edge="1" parent="1">
          <mxGeometry relative="1" as="geometry">
            <mxPoint x="329.5" y="260" as="sourcePoint" />
            <mxPoint x="329.55999999999995" y="299" as="targetPoint" />
          </mxGeometry>
        </mxCell>
        <mxCell id="e0VfKq8w8XFD6ZIbbJqP-138" value="" style="edgeStyle=orthogonalEdgeStyle;rounded=0;orthogonalLoop=1;jettySize=auto;html=1;fontSize=14;exitX=0.016;exitY=1.05;exitDx=0;exitDy=0;exitPerimeter=0;" edge="1" parent="1">
          <mxGeometry relative="1" as="geometry">
            <mxPoint x="359.5" y="260" as="sourcePoint" />
            <mxPoint x="359.55999999999995" y="299" as="targetPoint" />
          </mxGeometry>
        </mxCell>
        <mxCell id="e0VfKq8w8XFD6ZIbbJqP-139" value="" style="edgeStyle=orthogonalEdgeStyle;rounded=0;orthogonalLoop=1;jettySize=auto;html=1;fontSize=14;exitX=0.016;exitY=1.05;exitDx=0;exitDy=0;exitPerimeter=0;" edge="1" parent="1">
          <mxGeometry relative="1" as="geometry">
            <mxPoint x="389.5" y="261" as="sourcePoint" />
            <mxPoint x="389.55999999999995" y="300" as="targetPoint" />
          </mxGeometry>
        </mxCell>
        <mxCell id="e0VfKq8w8XFD6ZIbbJqP-140" value="" style="edgeStyle=orthogonalEdgeStyle;rounded=0;orthogonalLoop=1;jettySize=auto;html=1;fontSize=14;exitX=0.016;exitY=1.05;exitDx=0;exitDy=0;exitPerimeter=0;" edge="1" parent="1">
          <mxGeometry relative="1" as="geometry">
            <mxPoint x="419.5" y="260" as="sourcePoint" />
            <mxPoint x="419.55999999999995" y="299" as="targetPoint" />
          </mxGeometry>
        </mxCell>
        <mxCell id="e0VfKq8w8XFD6ZIbbJqP-141" value="" style="edgeStyle=orthogonalEdgeStyle;rounded=0;orthogonalLoop=1;jettySize=auto;html=1;fontSize=14;exitX=0.016;exitY=1.05;exitDx=0;exitDy=0;exitPerimeter=0;" edge="1" parent="1">
          <mxGeometry relative="1" as="geometry">
            <mxPoint x="449.5" y="261" as="sourcePoint" />
            <mxPoint x="449.55999999999995" y="300" as="targetPoint" />
          </mxGeometry>
        </mxCell>
        <mxCell id="e0VfKq8w8XFD6ZIbbJqP-142" value="" style="edgeStyle=orthogonalEdgeStyle;rounded=0;orthogonalLoop=1;jettySize=auto;html=1;fontSize=14;exitX=0.016;exitY=1.05;exitDx=0;exitDy=0;exitPerimeter=0;" edge="1" parent="1">
          <mxGeometry relative="1" as="geometry">
            <mxPoint x="479.5" y="261" as="sourcePoint" />
            <mxPoint x="479.55999999999995" y="300" as="targetPoint" />
          </mxGeometry>
        </mxCell>
        <mxCell id="e0VfKq8w8XFD6ZIbbJqP-143" value="" style="edgeStyle=orthogonalEdgeStyle;rounded=0;orthogonalLoop=1;jettySize=auto;html=1;fontSize=14;exitX=0.016;exitY=1.05;exitDx=0;exitDy=0;exitPerimeter=0;" edge="1" parent="1">
          <mxGeometry relative="1" as="geometry">
            <mxPoint x="509.5" y="261" as="sourcePoint" />
            <mxPoint x="509.55999999999995" y="300" as="targetPoint" />
          </mxGeometry>
        </mxCell>
        <mxCell id="e0VfKq8w8XFD6ZIbbJqP-144" value="" style="edgeStyle=orthogonalEdgeStyle;rounded=0;orthogonalLoop=1;jettySize=auto;html=1;fontSize=14;exitX=0.016;exitY=1.05;exitDx=0;exitDy=0;exitPerimeter=0;" edge="1" parent="1">
          <mxGeometry relative="1" as="geometry">
            <mxPoint x="539.5" y="261" as="sourcePoint" />
            <mxPoint x="539.56" y="300" as="targetPoint" />
          </mxGeometry>
        </mxCell>
        <mxCell id="e0VfKq8w8XFD6ZIbbJqP-145" value="" style="edgeStyle=orthogonalEdgeStyle;rounded=0;orthogonalLoop=1;jettySize=auto;html=1;fontSize=14;exitX=0.016;exitY=1.05;exitDx=0;exitDy=0;exitPerimeter=0;" edge="1" parent="1">
          <mxGeometry relative="1" as="geometry">
            <mxPoint x="569.5" y="260" as="sourcePoint" />
            <mxPoint x="569.56" y="299" as="targetPoint" />
          </mxGeometry>
        </mxCell>
        <mxCell id="e0VfKq8w8XFD6ZIbbJqP-146" value="" style="edgeStyle=orthogonalEdgeStyle;rounded=0;orthogonalLoop=1;jettySize=auto;html=1;fontSize=14;exitX=0.016;exitY=1.05;exitDx=0;exitDy=0;exitPerimeter=0;" edge="1" parent="1">
          <mxGeometry relative="1" as="geometry">
            <mxPoint x="599.5" y="260" as="sourcePoint" />
            <mxPoint x="599.56" y="299" as="targetPoint" />
          </mxGeometry>
        </mxCell>
        <mxCell id="e0VfKq8w8XFD6ZIbbJqP-147" value="" style="edgeStyle=orthogonalEdgeStyle;rounded=0;orthogonalLoop=1;jettySize=auto;html=1;fontSize=14;exitX=0.016;exitY=1.05;exitDx=0;exitDy=0;exitPerimeter=0;" edge="1" parent="1">
          <mxGeometry relative="1" as="geometry">
            <mxPoint x="629.5" y="260" as="sourcePoint" />
            <mxPoint x="629.56" y="299" as="targetPoint" />
          </mxGeometry>
        </mxCell>
        <mxCell id="e0VfKq8w8XFD6ZIbbJqP-148" value="" style="edgeStyle=orthogonalEdgeStyle;rounded=0;orthogonalLoop=1;jettySize=auto;html=1;fontSize=14;exitX=0.016;exitY=1.05;exitDx=0;exitDy=0;exitPerimeter=0;" edge="1" parent="1">
          <mxGeometry relative="1" as="geometry">
            <mxPoint x="659.5" y="261" as="sourcePoint" />
            <mxPoint x="659.56" y="300" as="targetPoint" />
          </mxGeometry>
        </mxCell>
        <mxCell id="e0VfKq8w8XFD6ZIbbJqP-149" value="" style="edgeStyle=orthogonalEdgeStyle;rounded=0;orthogonalLoop=1;jettySize=auto;html=1;fontSize=14;exitX=0.016;exitY=1.05;exitDx=0;exitDy=0;exitPerimeter=0;" edge="1" parent="1">
          <mxGeometry relative="1" as="geometry">
            <mxPoint x="659.5" y="81" as="sourcePoint" />
            <mxPoint x="659.56" y="120" as="targetPoint" />
          </mxGeometry>
        </mxCell>
        <mxCell id="e0VfKq8w8XFD6ZIbbJqP-303" style="edgeStyle=orthogonalEdgeStyle;rounded=0;orthogonalLoop=1;jettySize=auto;html=1;entryX=0.426;entryY=0.03;entryDx=0;entryDy=0;entryPerimeter=0;fontSize=14;" edge="1" parent="1" source="e0VfKq8w8XFD6ZIbbJqP-150" target="e0VfKq8w8XFD6ZIbbJqP-155">
          <mxGeometry relative="1" as="geometry">
            <Array as="points">
              <mxPoint x="270" y="370" />
              <mxPoint x="331" y="370" />
            </Array>
          </mxGeometry>
        </mxCell>
        <mxCell id="e0VfKq8w8XFD6ZIbbJqP-150" value="完" style="rounded=0;whiteSpace=wrap;html=1;fillColor=#f8cecc;strokeColor=#b85450;" vertex="1" parent="1">
          <mxGeometry x="260" y="340" width="20" height="20" as="geometry" />
        </mxCell>
        <mxCell id="e0VfKq8w8XFD6ZIbbJqP-305" style="edgeStyle=orthogonalEdgeStyle;rounded=0;orthogonalLoop=1;jettySize=auto;html=1;entryX=0.426;entryY=0.07;entryDx=0;entryDy=0;entryPerimeter=0;fontSize=14;" edge="1" parent="1" source="e0VfKq8w8XFD6ZIbbJqP-151" target="e0VfKq8w8XFD6ZIbbJqP-155">
          <mxGeometry relative="1" as="geometry">
            <Array as="points">
              <mxPoint x="390" y="370" />
              <mxPoint x="331" y="370" />
            </Array>
          </mxGeometry>
        </mxCell>
        <mxCell id="e0VfKq8w8XFD6ZIbbJqP-151" value="那" style="rounded=0;whiteSpace=wrap;html=1;fillColor=#f8cecc;strokeColor=#b85450;" vertex="1" parent="1">
          <mxGeometry x="380" y="340" width="20" height="20" as="geometry" />
        </mxCell>
        <mxCell id="e0VfKq8w8XFD6ZIbbJqP-293" style="edgeStyle=orthogonalEdgeStyle;rounded=0;orthogonalLoop=1;jettySize=auto;html=1;entryX=0.5;entryY=0;entryDx=0;entryDy=0;fontSize=14;" edge="1" parent="1" source="e0VfKq8w8XFD6ZIbbJqP-155" target="e0VfKq8w8XFD6ZIbbJqP-282">
          <mxGeometry relative="1" as="geometry" />
        </mxCell>
        <mxCell id="e0VfKq8w8XFD6ZIbbJqP-155" value="同音字获取" style="rounded=0;whiteSpace=wrap;html=1;fontSize=14;fillColor=#e1d5e7;strokeColor=#9673a6;" vertex="1" parent="1">
          <mxGeometry x="80" y="390" width="590" height="20" as="geometry" />
        </mxCell>
        <mxCell id="e0VfKq8w8XFD6ZIbbJqP-159" value="&amp;lt;cls&amp;gt;" style="rounded=0;whiteSpace=wrap;html=1;" vertex="1" parent="1">
          <mxGeometry x="90" y="550" width="20" height="20" as="geometry" />
        </mxCell>
        <mxCell id="e0VfKq8w8XFD6ZIbbJqP-160" value="了" style="rounded=0;whiteSpace=wrap;html=1;" vertex="1" parent="1">
          <mxGeometry x="120" y="550" width="20" height="20" as="geometry" />
        </mxCell>
        <mxCell id="e0VfKq8w8XFD6ZIbbJqP-161" value="解" style="rounded=0;whiteSpace=wrap;html=1;" vertex="1" parent="1">
          <mxGeometry x="150" y="550" width="20" height="20" as="geometry" />
        </mxCell>
        <mxCell id="e0VfKq8w8XFD6ZIbbJqP-162" value="下" style="rounded=0;whiteSpace=wrap;html=1;" vertex="1" parent="1">
          <mxGeometry x="180" y="550" width="20" height="20" as="geometry" />
        </mxCell>
        <mxCell id="e0VfKq8w8XFD6ZIbbJqP-163" value="十" style="rounded=0;whiteSpace=wrap;html=1;" vertex="1" parent="1">
          <mxGeometry x="210" y="550" width="20" height="20" as="geometry" />
        </mxCell>
        <mxCell id="e0VfKq8w8XFD6ZIbbJqP-164" value="二" style="rounded=0;whiteSpace=wrap;html=1;" vertex="1" parent="1">
          <mxGeometry x="240" y="550" width="20" height="20" as="geometry" />
        </mxCell>
        <mxCell id="e0VfKq8w8XFD6ZIbbJqP-165" value="完" style="rounded=0;whiteSpace=wrap;html=1;fillColor=#f8cecc;strokeColor=#b85450;" vertex="1" parent="1">
          <mxGeometry x="270" y="550" width="20" height="20" as="geometry" />
        </mxCell>
        <mxCell id="e0VfKq8w8XFD6ZIbbJqP-166" value="基" style="rounded=0;whiteSpace=wrap;html=1;" vertex="1" parent="1">
          <mxGeometry x="300" y="550" width="20" height="20" as="geometry" />
        </mxCell>
        <mxCell id="e0VfKq8w8XFD6ZIbbJqP-167" value="硫" style="rounded=0;whiteSpace=wrap;html=1;" vertex="1" parent="1">
          <mxGeometry x="330" y="550" width="20" height="20" as="geometry" />
        </mxCell>
        <mxCell id="e0VfKq8w8XFD6ZIbbJqP-168" value="酸" style="rounded=0;whiteSpace=wrap;html=1;" vertex="1" parent="1">
          <mxGeometry x="360" y="550" width="20" height="20" as="geometry" />
        </mxCell>
        <mxCell id="e0VfKq8w8XFD6ZIbbJqP-169" value="那" style="rounded=0;whiteSpace=wrap;html=1;" vertex="1" parent="1">
          <mxGeometry x="390" y="550" width="20" height="20" as="geometry" />
        </mxCell>
        <mxCell id="e0VfKq8w8XFD6ZIbbJqP-170" value="的" style="rounded=0;whiteSpace=wrap;html=1;" vertex="1" parent="1">
          <mxGeometry x="420" y="550" width="20" height="20" as="geometry" />
        </mxCell>
        <mxCell id="e0VfKq8w8XFD6ZIbbJqP-171" value="性" style="rounded=0;whiteSpace=wrap;html=1;" vertex="1" parent="1">
          <mxGeometry x="450" y="550" width="20" height="20" as="geometry" />
        </mxCell>
        <mxCell id="e0VfKq8w8XFD6ZIbbJqP-172" value="质" style="rounded=0;whiteSpace=wrap;html=1;" vertex="1" parent="1">
          <mxGeometry x="480" y="550" width="20" height="20" as="geometry" />
        </mxCell>
        <mxCell id="e0VfKq8w8XFD6ZIbbJqP-173" value="是" style="rounded=0;whiteSpace=wrap;html=1;" vertex="1" parent="1">
          <mxGeometry x="510" y="550" width="20" height="20" as="geometry" />
        </mxCell>
        <mxCell id="e0VfKq8w8XFD6ZIbbJqP-174" value="什" style="rounded=0;whiteSpace=wrap;html=1;" vertex="1" parent="1">
          <mxGeometry x="540" y="550" width="20" height="20" as="geometry" />
        </mxCell>
        <mxCell id="e0VfKq8w8XFD6ZIbbJqP-175" value="么" style="rounded=0;whiteSpace=wrap;html=1;" vertex="1" parent="1">
          <mxGeometry x="570" y="550" width="20" height="20" as="geometry" />
        </mxCell>
        <mxCell id="e0VfKq8w8XFD6ZIbbJqP-176" value="呢" style="rounded=0;whiteSpace=wrap;html=1;" vertex="1" parent="1">
          <mxGeometry x="600" y="550" width="20" height="20" as="geometry" />
        </mxCell>
        <mxCell id="e0VfKq8w8XFD6ZIbbJqP-177" value="?" style="rounded=0;whiteSpace=wrap;html=1;" vertex="1" parent="1">
          <mxGeometry x="630" y="550" width="20" height="20" as="geometry" />
        </mxCell>
        <mxCell id="e0VfKq8w8XFD6ZIbbJqP-178" value="&amp;lt;sep&amp;gt;" style="rounded=0;whiteSpace=wrap;html=1;" vertex="1" parent="1">
          <mxGeometry x="660" y="550" width="20" height="20" as="geometry" />
        </mxCell>
        <mxCell id="e0VfKq8w8XFD6ZIbbJqP-179" value="&amp;lt;cls&amp;gt;" style="rounded=0;whiteSpace=wrap;html=1;" vertex="1" parent="1">
          <mxGeometry x="90" y="590" width="20" height="20" as="geometry" />
        </mxCell>
        <mxCell id="e0VfKq8w8XFD6ZIbbJqP-180" value="了" style="rounded=0;whiteSpace=wrap;html=1;" vertex="1" parent="1">
          <mxGeometry x="120" y="590" width="20" height="20" as="geometry" />
        </mxCell>
        <mxCell id="e0VfKq8w8XFD6ZIbbJqP-181" value="解" style="rounded=0;whiteSpace=wrap;html=1;" vertex="1" parent="1">
          <mxGeometry x="150" y="590" width="20" height="20" as="geometry" />
        </mxCell>
        <mxCell id="e0VfKq8w8XFD6ZIbbJqP-182" value="下" style="rounded=0;whiteSpace=wrap;html=1;" vertex="1" parent="1">
          <mxGeometry x="180" y="590" width="20" height="20" as="geometry" />
        </mxCell>
        <mxCell id="e0VfKq8w8XFD6ZIbbJqP-183" value="十" style="rounded=0;whiteSpace=wrap;html=1;" vertex="1" parent="1">
          <mxGeometry x="210" y="590" width="20" height="20" as="geometry" />
        </mxCell>
        <mxCell id="e0VfKq8w8XFD6ZIbbJqP-184" value="二" style="rounded=0;whiteSpace=wrap;html=1;" vertex="1" parent="1">
          <mxGeometry x="240" y="590" width="20" height="20" as="geometry" />
        </mxCell>
        <mxCell id="e0VfKq8w8XFD6ZIbbJqP-185" value="完" style="rounded=0;whiteSpace=wrap;html=1;" vertex="1" parent="1">
          <mxGeometry x="270" y="590" width="20" height="20" as="geometry" />
        </mxCell>
        <mxCell id="e0VfKq8w8XFD6ZIbbJqP-186" value="基" style="rounded=0;whiteSpace=wrap;html=1;" vertex="1" parent="1">
          <mxGeometry x="300" y="590" width="20" height="20" as="geometry" />
        </mxCell>
        <mxCell id="e0VfKq8w8XFD6ZIbbJqP-187" value="硫" style="rounded=0;whiteSpace=wrap;html=1;" vertex="1" parent="1">
          <mxGeometry x="330" y="590" width="20" height="20" as="geometry" />
        </mxCell>
        <mxCell id="e0VfKq8w8XFD6ZIbbJqP-188" value="酸" style="rounded=0;whiteSpace=wrap;html=1;" vertex="1" parent="1">
          <mxGeometry x="360" y="590" width="20" height="20" as="geometry" />
        </mxCell>
        <mxCell id="e0VfKq8w8XFD6ZIbbJqP-189" value="那" style="rounded=0;whiteSpace=wrap;html=1;fillColor=#f8cecc;strokeColor=#b85450;" vertex="1" parent="1">
          <mxGeometry x="390" y="590" width="20" height="20" as="geometry" />
        </mxCell>
        <mxCell id="e0VfKq8w8XFD6ZIbbJqP-190" value="的" style="rounded=0;whiteSpace=wrap;html=1;" vertex="1" parent="1">
          <mxGeometry x="420" y="590" width="20" height="20" as="geometry" />
        </mxCell>
        <mxCell id="e0VfKq8w8XFD6ZIbbJqP-191" value="性" style="rounded=0;whiteSpace=wrap;html=1;" vertex="1" parent="1">
          <mxGeometry x="450" y="590" width="20" height="20" as="geometry" />
        </mxCell>
        <mxCell id="e0VfKq8w8XFD6ZIbbJqP-192" value="质" style="rounded=0;whiteSpace=wrap;html=1;" vertex="1" parent="1">
          <mxGeometry x="480" y="590" width="20" height="20" as="geometry" />
        </mxCell>
        <mxCell id="e0VfKq8w8XFD6ZIbbJqP-193" value="是" style="rounded=0;whiteSpace=wrap;html=1;" vertex="1" parent="1">
          <mxGeometry x="510" y="590" width="20" height="20" as="geometry" />
        </mxCell>
        <mxCell id="e0VfKq8w8XFD6ZIbbJqP-194" value="什" style="rounded=0;whiteSpace=wrap;html=1;" vertex="1" parent="1">
          <mxGeometry x="540" y="590" width="20" height="20" as="geometry" />
        </mxCell>
        <mxCell id="e0VfKq8w8XFD6ZIbbJqP-195" value="么" style="rounded=0;whiteSpace=wrap;html=1;" vertex="1" parent="1">
          <mxGeometry x="570" y="590" width="20" height="20" as="geometry" />
        </mxCell>
        <mxCell id="e0VfKq8w8XFD6ZIbbJqP-196" value="呢" style="rounded=0;whiteSpace=wrap;html=1;" vertex="1" parent="1">
          <mxGeometry x="600" y="590" width="20" height="20" as="geometry" />
        </mxCell>
        <mxCell id="e0VfKq8w8XFD6ZIbbJqP-197" value="?" style="rounded=0;whiteSpace=wrap;html=1;" vertex="1" parent="1">
          <mxGeometry x="630" y="590" width="20" height="20" as="geometry" />
        </mxCell>
        <mxCell id="e0VfKq8w8XFD6ZIbbJqP-198" value="&amp;lt;sep&amp;gt;" style="rounded=0;whiteSpace=wrap;html=1;" vertex="1" parent="1">
          <mxGeometry x="660" y="590" width="20" height="20" as="geometry" />
        </mxCell>
        <mxCell id="e0VfKq8w8XFD6ZIbbJqP-204" value="拿" style="rounded=0;whiteSpace=wrap;html=1;" vertex="1" parent="1">
          <mxGeometry x="690" y="590" width="20" height="20" as="geometry" />
        </mxCell>
        <mxCell id="e0VfKq8w8XFD6ZIbbJqP-205" value="哪" style="rounded=0;whiteSpace=wrap;html=1;" vertex="1" parent="1">
          <mxGeometry x="720" y="590" width="20" height="20" as="geometry" />
        </mxCell>
        <mxCell id="e0VfKq8w8XFD6ZIbbJqP-206" value="呐" style="rounded=0;whiteSpace=wrap;html=1;" vertex="1" parent="1">
          <mxGeometry x="750" y="590" width="20" height="20" as="geometry" />
        </mxCell>
        <mxCell id="e0VfKq8w8XFD6ZIbbJqP-207" value="纳" style="rounded=0;whiteSpace=wrap;html=1;" vertex="1" parent="1">
          <mxGeometry x="780" y="590" width="20" height="20" as="geometry" />
        </mxCell>
        <mxCell id="e0VfKq8w8XFD6ZIbbJqP-208" value="钠" style="rounded=0;whiteSpace=wrap;html=1;fillColor=#f8cecc;strokeColor=#b85450;" vertex="1" parent="1">
          <mxGeometry x="810" y="590" width="20" height="20" as="geometry" />
        </mxCell>
        <mxCell id="e0VfKq8w8XFD6ZIbbJqP-209" value="娜" style="rounded=0;whiteSpace=wrap;html=1;" vertex="1" parent="1">
          <mxGeometry x="840" y="590" width="20" height="20" as="geometry" />
        </mxCell>
        <mxCell id="e0VfKq8w8XFD6ZIbbJqP-210" value="完" style="rounded=0;whiteSpace=wrap;html=1;" vertex="1" parent="1">
          <mxGeometry x="690" y="550" width="20" height="20" as="geometry" />
        </mxCell>
        <mxCell id="e0VfKq8w8XFD6ZIbbJqP-211" value="万" style="rounded=0;whiteSpace=wrap;html=1;" vertex="1" parent="1">
          <mxGeometry x="720" y="550" width="20" height="20" as="geometry" />
        </mxCell>
        <mxCell id="e0VfKq8w8XFD6ZIbbJqP-212" value="玩" style="rounded=0;whiteSpace=wrap;html=1;" vertex="1" parent="1">
          <mxGeometry x="750" y="550" width="20" height="20" as="geometry" />
        </mxCell>
        <mxCell id="e0VfKq8w8XFD6ZIbbJqP-213" value="晚" style="rounded=0;whiteSpace=wrap;html=1;" vertex="1" parent="1">
          <mxGeometry x="780" y="550" width="20" height="20" as="geometry" />
        </mxCell>
        <mxCell id="e0VfKq8w8XFD6ZIbbJqP-214" value="碗" style="rounded=0;whiteSpace=wrap;html=1;" vertex="1" parent="1">
          <mxGeometry x="810" y="550" width="20" height="20" as="geometry" />
        </mxCell>
        <mxCell id="e0VfKq8w8XFD6ZIbbJqP-215" value="烷" style="rounded=0;whiteSpace=wrap;html=1;fillColor=#f8cecc;strokeColor=#b85450;" vertex="1" parent="1">
          <mxGeometry x="840" y="550" width="20" height="20" as="geometry" />
        </mxCell>
        <mxCell id="e0VfKq8w8XFD6ZIbbJqP-217" style="edgeStyle=orthogonalEdgeStyle;rounded=0;orthogonalLoop=1;jettySize=auto;html=1;entryX=0.5;entryY=0;entryDx=0;entryDy=0;fontSize=14;" edge="1" parent="1" source="e0VfKq8w8XFD6ZIbbJqP-218" target="e0VfKq8w8XFD6ZIbbJqP-220">
          <mxGeometry relative="1" as="geometry" />
        </mxCell>
        <mxCell id="e0VfKq8w8XFD6ZIbbJqP-218" value="Bert" style="rounded=0;whiteSpace=wrap;html=1;fillColor=#d5e8d4;strokeColor=#82b366;" vertex="1" parent="1">
          <mxGeometry x="80" y="650" width="790" height="20" as="geometry" />
        </mxCell>
        <mxCell id="e0VfKq8w8XFD6ZIbbJqP-219" value="" style="edgeStyle=orthogonalEdgeStyle;rounded=0;orthogonalLoop=1;jettySize=auto;html=1;fontSize=14;" edge="1" parent="1" source="e0VfKq8w8XFD6ZIbbJqP-220" target="e0VfKq8w8XFD6ZIbbJqP-222">
          <mxGeometry relative="1" as="geometry" />
        </mxCell>
        <mxCell id="e0VfKq8w8XFD6ZIbbJqP-220" value="Encode-Hidden-States" style="rounded=0;whiteSpace=wrap;html=1;fillColor=#ffe6cc;strokeColor=#d79b00;" vertex="1" parent="1">
          <mxGeometry x="80" y="690" width="790" height="20" as="geometry" />
        </mxCell>
        <mxCell id="e0VfKq8w8XFD6ZIbbJqP-221" value="" style="edgeStyle=orthogonalEdgeStyle;rounded=0;orthogonalLoop=1;jettySize=auto;html=1;fontSize=14;" edge="1" parent="1" source="e0VfKq8w8XFD6ZIbbJqP-222" target="e0VfKq8w8XFD6ZIbbJqP-223">
          <mxGeometry relative="1" as="geometry" />
        </mxCell>
        <mxCell id="e0VfKq8w8XFD6ZIbbJqP-222" value="Dense" style="rounded=0;whiteSpace=wrap;html=1;fillColor=#fff2cc;strokeColor=#d6b656;" vertex="1" parent="1">
          <mxGeometry x="80" y="730" width="790" height="20" as="geometry" />
        </mxCell>
        <mxCell id="e0VfKq8w8XFD6ZIbbJqP-278" style="edgeStyle=orthogonalEdgeStyle;rounded=0;orthogonalLoop=1;jettySize=auto;html=1;entryX=0.5;entryY=0;entryDx=0;entryDy=0;fontSize=14;" edge="1" parent="1" source="e0VfKq8w8XFD6ZIbbJqP-223" target="e0VfKq8w8XFD6ZIbbJqP-277">
          <mxGeometry relative="1" as="geometry">
            <Array as="points" />
          </mxGeometry>
        </mxCell>
        <mxCell id="e0VfKq8w8XFD6ZIbbJqP-223" value="Crf" style="rounded=0;whiteSpace=wrap;html=1;fillColor=#f8cecc;strokeColor=#b85450;" vertex="1" parent="1">
          <mxGeometry x="80" y="770" width="790" height="20" as="geometry" />
        </mxCell>
        <mxCell id="e0VfKq8w8XFD6ZIbbJqP-225" value="0" style="rounded=0;whiteSpace=wrap;html=1;" vertex="1" parent="1">
          <mxGeometry x="90" y="820" width="20" height="20" as="geometry" />
        </mxCell>
        <mxCell id="e0VfKq8w8XFD6ZIbbJqP-226" value="0" style="rounded=0;whiteSpace=wrap;html=1;" vertex="1" parent="1">
          <mxGeometry x="120" y="820" width="20" height="20" as="geometry" />
        </mxCell>
        <mxCell id="e0VfKq8w8XFD6ZIbbJqP-227" value="0" style="rounded=0;whiteSpace=wrap;html=1;" vertex="1" parent="1">
          <mxGeometry x="150" y="820" width="20" height="20" as="geometry" />
        </mxCell>
        <mxCell id="e0VfKq8w8XFD6ZIbbJqP-228" value="0" style="rounded=0;whiteSpace=wrap;html=1;" vertex="1" parent="1">
          <mxGeometry x="180" y="820" width="20" height="20" as="geometry" />
        </mxCell>
        <mxCell id="e0VfKq8w8XFD6ZIbbJqP-229" value="0" style="rounded=0;whiteSpace=wrap;html=1;" vertex="1" parent="1">
          <mxGeometry x="210" y="820" width="20" height="20" as="geometry" />
        </mxCell>
        <mxCell id="e0VfKq8w8XFD6ZIbbJqP-230" value="0" style="rounded=0;whiteSpace=wrap;html=1;" vertex="1" parent="1">
          <mxGeometry x="240" y="820" width="20" height="20" as="geometry" />
        </mxCell>
        <mxCell id="e0VfKq8w8XFD6ZIbbJqP-231" value="0" style="rounded=0;whiteSpace=wrap;html=1;" vertex="1" parent="1">
          <mxGeometry x="270" y="820" width="20" height="20" as="geometry" />
        </mxCell>
        <mxCell id="e0VfKq8w8XFD6ZIbbJqP-232" value="0" style="rounded=0;whiteSpace=wrap;html=1;" vertex="1" parent="1">
          <mxGeometry x="300" y="820" width="20" height="20" as="geometry" />
        </mxCell>
        <mxCell id="e0VfKq8w8XFD6ZIbbJqP-233" value="0" style="rounded=0;whiteSpace=wrap;html=1;" vertex="1" parent="1">
          <mxGeometry x="330" y="820" width="20" height="20" as="geometry" />
        </mxCell>
        <mxCell id="e0VfKq8w8XFD6ZIbbJqP-234" value="0" style="rounded=0;whiteSpace=wrap;html=1;" vertex="1" parent="1">
          <mxGeometry x="360" y="820" width="20" height="20" as="geometry" />
        </mxCell>
        <mxCell id="e0VfKq8w8XFD6ZIbbJqP-235" value="0" style="rounded=0;whiteSpace=wrap;html=1;" vertex="1" parent="1">
          <mxGeometry x="390" y="820" width="20" height="20" as="geometry" />
        </mxCell>
        <mxCell id="e0VfKq8w8XFD6ZIbbJqP-236" value="0" style="rounded=0;whiteSpace=wrap;html=1;" vertex="1" parent="1">
          <mxGeometry x="420" y="820" width="20" height="20" as="geometry" />
        </mxCell>
        <mxCell id="e0VfKq8w8XFD6ZIbbJqP-237" value="0" style="rounded=0;whiteSpace=wrap;html=1;" vertex="1" parent="1">
          <mxGeometry x="450" y="820" width="20" height="20" as="geometry" />
        </mxCell>
        <mxCell id="e0VfKq8w8XFD6ZIbbJqP-238" value="0" style="rounded=0;whiteSpace=wrap;html=1;" vertex="1" parent="1">
          <mxGeometry x="480" y="820" width="20" height="20" as="geometry" />
        </mxCell>
        <mxCell id="e0VfKq8w8XFD6ZIbbJqP-239" value="0" style="rounded=0;whiteSpace=wrap;html=1;" vertex="1" parent="1">
          <mxGeometry x="510" y="820" width="20" height="20" as="geometry" />
        </mxCell>
        <mxCell id="e0VfKq8w8XFD6ZIbbJqP-240" value="0" style="rounded=0;whiteSpace=wrap;html=1;" vertex="1" parent="1">
          <mxGeometry x="540" y="820" width="20" height="20" as="geometry" />
        </mxCell>
        <mxCell id="e0VfKq8w8XFD6ZIbbJqP-241" value="0" style="rounded=0;whiteSpace=wrap;html=1;" vertex="1" parent="1">
          <mxGeometry x="570" y="820" width="20" height="20" as="geometry" />
        </mxCell>
        <mxCell id="e0VfKq8w8XFD6ZIbbJqP-242" value="0" style="rounded=0;whiteSpace=wrap;html=1;" vertex="1" parent="1">
          <mxGeometry x="600" y="820" width="20" height="20" as="geometry" />
        </mxCell>
        <mxCell id="e0VfKq8w8XFD6ZIbbJqP-243" value="0" style="rounded=0;whiteSpace=wrap;html=1;" vertex="1" parent="1">
          <mxGeometry x="630" y="820" width="20" height="20" as="geometry" />
        </mxCell>
        <mxCell id="e0VfKq8w8XFD6ZIbbJqP-244" value="0" style="rounded=0;whiteSpace=wrap;html=1;" vertex="1" parent="1">
          <mxGeometry x="660" y="820" width="20" height="20" as="geometry" />
        </mxCell>
        <mxCell id="e0VfKq8w8XFD6ZIbbJqP-245" value="0" style="rounded=0;whiteSpace=wrap;html=1;" vertex="1" parent="1">
          <mxGeometry x="690" y="820" width="20" height="20" as="geometry" />
        </mxCell>
        <mxCell id="e0VfKq8w8XFD6ZIbbJqP-246" value="0" style="rounded=0;whiteSpace=wrap;html=1;" vertex="1" parent="1">
          <mxGeometry x="720" y="820" width="20" height="20" as="geometry" />
        </mxCell>
        <mxCell id="e0VfKq8w8XFD6ZIbbJqP-247" value="0" style="rounded=0;whiteSpace=wrap;html=1;" vertex="1" parent="1">
          <mxGeometry x="750" y="820" width="20" height="20" as="geometry" />
        </mxCell>
        <mxCell id="e0VfKq8w8XFD6ZIbbJqP-248" value="0" style="rounded=0;whiteSpace=wrap;html=1;" vertex="1" parent="1">
          <mxGeometry x="780" y="820" width="20" height="20" as="geometry" />
        </mxCell>
        <mxCell id="e0VfKq8w8XFD6ZIbbJqP-249" value="1" style="rounded=0;whiteSpace=wrap;html=1;fillColor=#f8cecc;strokeColor=#b85450;" vertex="1" parent="1">
          <mxGeometry x="810" y="820" width="20" height="20" as="geometry" />
        </mxCell>
        <mxCell id="e0VfKq8w8XFD6ZIbbJqP-250" value="0" style="rounded=0;whiteSpace=wrap;html=1;" vertex="1" parent="1">
          <mxGeometry x="840" y="820" width="20" height="20" as="geometry" />
        </mxCell>
        <mxCell id="e0VfKq8w8XFD6ZIbbJqP-251" value="0" style="rounded=0;whiteSpace=wrap;html=1;" vertex="1" parent="1">
          <mxGeometry x="90" y="860" width="20" height="20" as="geometry" />
        </mxCell>
        <mxCell id="e0VfKq8w8XFD6ZIbbJqP-252" value="0" style="rounded=0;whiteSpace=wrap;html=1;" vertex="1" parent="1">
          <mxGeometry x="120" y="860" width="20" height="20" as="geometry" />
        </mxCell>
        <mxCell id="e0VfKq8w8XFD6ZIbbJqP-253" value="0" style="rounded=0;whiteSpace=wrap;html=1;" vertex="1" parent="1">
          <mxGeometry x="150" y="860" width="20" height="20" as="geometry" />
        </mxCell>
        <mxCell id="e0VfKq8w8XFD6ZIbbJqP-254" value="0" style="rounded=0;whiteSpace=wrap;html=1;" vertex="1" parent="1">
          <mxGeometry x="180" y="860" width="20" height="20" as="geometry" />
        </mxCell>
        <mxCell id="e0VfKq8w8XFD6ZIbbJqP-255" value="0" style="rounded=0;whiteSpace=wrap;html=1;" vertex="1" parent="1">
          <mxGeometry x="210" y="860" width="20" height="20" as="geometry" />
        </mxCell>
        <mxCell id="e0VfKq8w8XFD6ZIbbJqP-256" value="0" style="rounded=0;whiteSpace=wrap;html=1;" vertex="1" parent="1">
          <mxGeometry x="240" y="860" width="20" height="20" as="geometry" />
        </mxCell>
        <mxCell id="e0VfKq8w8XFD6ZIbbJqP-257" value="0" style="rounded=0;whiteSpace=wrap;html=1;" vertex="1" parent="1">
          <mxGeometry x="270" y="860" width="20" height="20" as="geometry" />
        </mxCell>
        <mxCell id="e0VfKq8w8XFD6ZIbbJqP-258" value="0" style="rounded=0;whiteSpace=wrap;html=1;" vertex="1" parent="1">
          <mxGeometry x="300" y="860" width="20" height="20" as="geometry" />
        </mxCell>
        <mxCell id="e0VfKq8w8XFD6ZIbbJqP-259" value="0" style="rounded=0;whiteSpace=wrap;html=1;" vertex="1" parent="1">
          <mxGeometry x="330" y="860" width="20" height="20" as="geometry" />
        </mxCell>
        <mxCell id="e0VfKq8w8XFD6ZIbbJqP-260" value="0" style="rounded=0;whiteSpace=wrap;html=1;" vertex="1" parent="1">
          <mxGeometry x="360" y="860" width="20" height="20" as="geometry" />
        </mxCell>
        <mxCell id="e0VfKq8w8XFD6ZIbbJqP-261" value="0" style="rounded=0;whiteSpace=wrap;html=1;" vertex="1" parent="1">
          <mxGeometry x="390" y="860" width="20" height="20" as="geometry" />
        </mxCell>
        <mxCell id="e0VfKq8w8XFD6ZIbbJqP-262" value="0" style="rounded=0;whiteSpace=wrap;html=1;" vertex="1" parent="1">
          <mxGeometry x="420" y="860" width="20" height="20" as="geometry" />
        </mxCell>
        <mxCell id="e0VfKq8w8XFD6ZIbbJqP-263" value="0" style="rounded=0;whiteSpace=wrap;html=1;" vertex="1" parent="1">
          <mxGeometry x="450" y="860" width="20" height="20" as="geometry" />
        </mxCell>
        <mxCell id="e0VfKq8w8XFD6ZIbbJqP-264" value="0" style="rounded=0;whiteSpace=wrap;html=1;" vertex="1" parent="1">
          <mxGeometry x="480" y="860" width="20" height="20" as="geometry" />
        </mxCell>
        <mxCell id="e0VfKq8w8XFD6ZIbbJqP-265" value="0" style="rounded=0;whiteSpace=wrap;html=1;" vertex="1" parent="1">
          <mxGeometry x="510" y="860" width="20" height="20" as="geometry" />
        </mxCell>
        <mxCell id="e0VfKq8w8XFD6ZIbbJqP-266" value="0" style="rounded=0;whiteSpace=wrap;html=1;" vertex="1" parent="1">
          <mxGeometry x="540" y="860" width="20" height="20" as="geometry" />
        </mxCell>
        <mxCell id="e0VfKq8w8XFD6ZIbbJqP-267" value="0" style="rounded=0;whiteSpace=wrap;html=1;" vertex="1" parent="1">
          <mxGeometry x="570" y="860" width="20" height="20" as="geometry" />
        </mxCell>
        <mxCell id="e0VfKq8w8XFD6ZIbbJqP-268" value="0" style="rounded=0;whiteSpace=wrap;html=1;" vertex="1" parent="1">
          <mxGeometry x="600" y="860" width="20" height="20" as="geometry" />
        </mxCell>
        <mxCell id="e0VfKq8w8XFD6ZIbbJqP-269" value="0" style="rounded=0;whiteSpace=wrap;html=1;" vertex="1" parent="1">
          <mxGeometry x="630" y="860" width="20" height="20" as="geometry" />
        </mxCell>
        <mxCell id="e0VfKq8w8XFD6ZIbbJqP-270" value="0" style="rounded=0;whiteSpace=wrap;html=1;" vertex="1" parent="1">
          <mxGeometry x="660" y="860" width="20" height="20" as="geometry" />
        </mxCell>
        <mxCell id="e0VfKq8w8XFD6ZIbbJqP-271" value="0" style="rounded=0;whiteSpace=wrap;html=1;" vertex="1" parent="1">
          <mxGeometry x="690" y="860" width="20" height="20" as="geometry" />
        </mxCell>
        <mxCell id="e0VfKq8w8XFD6ZIbbJqP-272" value="0" style="rounded=0;whiteSpace=wrap;html=1;" vertex="1" parent="1">
          <mxGeometry x="720" y="860" width="20" height="20" as="geometry" />
        </mxCell>
        <mxCell id="e0VfKq8w8XFD6ZIbbJqP-273" value="0" style="rounded=0;whiteSpace=wrap;html=1;" vertex="1" parent="1">
          <mxGeometry x="750" y="860" width="20" height="20" as="geometry" />
        </mxCell>
        <mxCell id="e0VfKq8w8XFD6ZIbbJqP-274" value="0" style="rounded=0;whiteSpace=wrap;html=1;" vertex="1" parent="1">
          <mxGeometry x="780" y="860" width="20" height="20" as="geometry" />
        </mxCell>
        <mxCell id="e0VfKq8w8XFD6ZIbbJqP-275" value="0" style="rounded=0;whiteSpace=wrap;html=1;" vertex="1" parent="1">
          <mxGeometry x="810" y="860" width="20" height="20" as="geometry" />
        </mxCell>
        <mxCell id="e0VfKq8w8XFD6ZIbbJqP-276" value="1" style="rounded=0;whiteSpace=wrap;html=1;fillColor=#f8cecc;strokeColor=#b85450;" vertex="1" parent="1">
          <mxGeometry x="841" y="860" width="20" height="20" as="geometry" />
        </mxCell>
        <mxCell id="e0VfKq8w8XFD6ZIbbJqP-295" value="" style="edgeStyle=orthogonalEdgeStyle;rounded=0;orthogonalLoop=1;jettySize=auto;html=1;fontSize=14;entryX=0.5;entryY=0;entryDx=0;entryDy=0;" edge="1" parent="1" source="e0VfKq8w8XFD6ZIbbJqP-282" target="e0VfKq8w8XFD6ZIbbJqP-296">
          <mxGeometry relative="1" as="geometry">
            <mxPoint x="375" y="510" as="targetPoint" />
          </mxGeometry>
        </mxCell>
        <mxCell id="e0VfKq8w8XFD6ZIbbJqP-282" value="wan:[完，万，玩，晚，碗，&lt;b&gt;烷&lt;/b&gt;]&amp;nbsp; &amp;nbsp; &amp;nbsp;na:[&lt;span style=&quot;background-color: initial; font-family: 微软雅黑; font-size: 11pt;&quot;&gt;&lt;font face=&quot;微软雅黑&quot;&gt;拿，&lt;/font&gt;&lt;font face=&quot;微软雅黑&quot;&gt;哪，&lt;/font&gt;&lt;font face=&quot;微软雅黑&quot;&gt;呐，&lt;/font&gt;&lt;font face=&quot;微软雅黑&quot;&gt;纳，&lt;/font&gt;&lt;/span&gt;&lt;b style=&quot;background-color: initial;&quot;&gt;&lt;span style=&quot;font-family: 微软雅黑; font-size: 11pt;&quot;&gt;钠，&lt;/span&gt;&lt;/b&gt;&lt;span style=&quot;background-color: initial; font-family: 微软雅黑; font-size: 11pt;&quot;&gt;娜&lt;/span&gt;&lt;span style=&quot;background-color: initial;&quot;&gt;]&lt;/span&gt;" style="rounded=0;whiteSpace=wrap;html=1;fontSize=14;fillColor=#e1d5e7;strokeColor=#9673a6;" vertex="1" parent="1">
          <mxGeometry x="80" y="430" width="590" height="20" as="geometry" />
        </mxCell>
        <mxCell id="e0VfKq8w8XFD6ZIbbJqP-297" style="edgeStyle=orthogonalEdgeStyle;rounded=0;orthogonalLoop=1;jettySize=auto;html=1;entryX=0.373;entryY=-0.017;entryDx=0;entryDy=0;entryPerimeter=0;fontSize=14;" edge="1" parent="1" source="e0VfKq8w8XFD6ZIbbJqP-296" target="e0VfKq8w8XFD6ZIbbJqP-216">
          <mxGeometry relative="1" as="geometry" />
        </mxCell>
        <mxCell id="e0VfKq8w8XFD6ZIbbJqP-296" value="文本拼接" style="rounded=0;whiteSpace=wrap;html=1;fontSize=14;fillColor=#e1d5e7;strokeColor=#9673a6;" vertex="1" parent="1">
          <mxGeometry x="80" y="480" width="590" height="20" as="geometry" />
        </mxCell>
        <mxCell id="e0VfKq8w8XFD6ZIbbJqP-306" value="" style="shape=curlyBracket;whiteSpace=wrap;html=1;rounded=1;fontSize=14;direction=west;" vertex="1" parent="1">
          <mxGeometry x="730" y="60" width="20" height="300" as="geometry" />
        </mxCell>
        <mxCell id="e0VfKq8w8XFD6ZIbbJqP-307" value="文本找错" style="text;html=1;align=center;verticalAlign=middle;resizable=0;points=[];autosize=1;strokeColor=none;fillColor=none;fontSize=14;" vertex="1" parent="1">
          <mxGeometry x="747" y="195" width="80" height="30" as="geometry" />
        </mxCell>
        <mxCell id="e0VfKq8w8XFD6ZIbbJqP-308" value="" style="shape=curlyBracket;whiteSpace=wrap;html=1;rounded=1;fontSize=14;direction=west;" vertex="1" parent="1">
          <mxGeometry x="890" y="390" width="20" height="110" as="geometry" />
        </mxCell>
        <mxCell id="e0VfKq8w8XFD6ZIbbJqP-309" value="文本拼接" style="text;html=1;align=center;verticalAlign=middle;resizable=0;points=[];autosize=1;strokeColor=none;fillColor=none;fontSize=14;" vertex="1" parent="1">
          <mxGeometry x="910" y="430" width="80" height="30" as="geometry" />
        </mxCell>
        <mxCell id="e0VfKq8w8XFD6ZIbbJqP-310" value="" style="shape=curlyBracket;whiteSpace=wrap;html=1;rounded=1;fontSize=14;direction=west;" vertex="1" parent="1">
          <mxGeometry x="900" y="540" width="20" height="350" as="geometry" />
        </mxCell>
        <mxCell id="e0VfKq8w8XFD6ZIbbJqP-311" value="文本纠错" style="text;html=1;align=center;verticalAlign=middle;resizable=0;points=[];autosize=1;strokeColor=none;fillColor=none;fontSize=14;" vertex="1" parent="1">
          <mxGeometry x="910" y="700" width="80" height="30" as="geometry" />
        </mxCell>
      </root>
    </mxGraphModel>
  </diagram>
</mxfile>
